# xmcd
#
# Track frame offsets: 
#        150
#        19835
#        44372
#        64670
#        81570
#        109125
#        138105
#        161525
#
# Disc length: 2216 seconds
#
# Revision: 1
# Processed by: cddbd v1.5.2PL0 Copyright (c) Steve Scherf et al.
# Submitted via: ExactAudioCopy v0.99pb5
#
DISCID=6508a608
DTITLE=H.M. Johnson - Everybody Wants Control Of You
DYEAR=1993
DGENRE=Jazz
TTITLE0=You're Always There
TTITLE1=You Move Me
TTITLE2=Everybody Wants Control Of You
TTITLE3=I've Never Been So Lonely
TTITLE4=The Most
TTITLE5=One Woman Man
TTITLE6=Movin'
TTITLE7=Song For Barb
EXTD=
EXTT0=
EXTT1=
EXTT2=
EXTT3=
EXTT4=
EXTT5=
EXTT6=
EXTT7=
PLAYORDER=
